<svg width="86" height="86" viewBox="0 0 86 86" fill="none" xmlns="http://www.w3.org/2000/svg">
<circle cx="43" cy="43" r="43" fill="url(#paint0_linear_33_3)"/>
<g clip-path="url(#clip0_33_3)">
<path d="M64.1407 20.3216C60.8532 22.2169 57.1376 24.9302 53.6438 27.9901C50.8282 30.4568 47.8251 33.4293 45.0438 36.5017C43.1251 38.6249 41.0563 41.0947 39.1876 43.4958C38.5376 44.3326 36.8563 46.5744 36.3282 47.3144C36.0563 47.6954 35.9063 47.8796 35.8751 47.8702C35.8501 47.864 33.472 46.5276 30.5938 44.904L25.3595 41.9471L25.2407 42.0814C25.1782 42.1563 25.1095 42.2375 25.0938 42.2656C25.0657 42.3155 25.5095 42.8338 36.8251 55.9446L37.7345 57H37.8595H37.9845L38.6938 55.5856C42.197 48.6196 45.6376 42.8838 49.5407 37.5008C53.8438 31.5715 58.7157 26.1105 64.197 21.0803C64.5876 20.7213 64.9063 20.4184 64.9063 20.4059C64.9063 20.3903 64.6907 20.0843 64.6501 20.0437C64.6438 20.0406 64.4157 20.1655 64.1407 20.3216Z" fill="white"/>
</g>
<defs>
<linearGradient id="paint0_linear_33_3" x1="68.5" y1="75.5" x2="22.5" y2="2.00001" gradientUnits="userSpaceOnUse">
<stop offset="0.085" stop-color="#77609E"/>
<stop offset="0.357463" stop-color="#BD48D4" stop-opacity="0.71"/>
<stop offset="0.603566" stop-color="#BB47D3" stop-opacity="0.68"/>
<stop offset="1" stop-color="#77609E" stop-opacity="0.74"/>
</linearGradient>
<clipPath id="clip0_33_3">
<rect width="40" height="37" fill="white" transform="translate(25 20)"/>
</clipPath>
</defs>
</svg>
